<?xml version="1.0" encoding="utf-8"?>
<!-- Generator: Adobe Illustrator 22.1.0, SVG Export Plug-In . SVG Version: 6.00 Build 0)  -->
<svg version="1.1" id="Layer_1" xmlns="http://www.w3.org/2000/svg" xmlns:xlink="http://www.w3.org/1999/xlink" x="0px" y="0px"
	 viewBox="0 0 44 48.7" style="enable-background:new 0 0 44 48.7;" xml:space="preserve">
<style type="text/css">
	.st0{fill:url(#shield_1_);}
	.st1{fill:none;}
	.st2{fill:#FFFFFF;}
	.st3{fill:#E21D39;}
</style>
<linearGradient id="shield_1_" gradientUnits="userSpaceOnUse" x1="43.6" y1="25.6372" x2="0.4" y2="25.6372" gradientTransform="matrix(1 0 0 -1 0 50)">
	<stop  offset="0" style="stop-color:#4D4D4F"/>
	<stop  offset="0.5361" style="stop-color:#808285"/>
	<stop  offset="1" style="stop-color:#4D4D4F"/>
</linearGradient>
<path id="shield" class="st0" d="M0.4,7.9c0,0,0,11.1,0,13.9c0,18,21,26.5,21.5,26.5c0,0,21.7-9,21.7-25.9s0-14.7,0-14.7
	S23.8-8.8,0.4,7.9z"/>
<g id="capbuilding">
	<path class="st1" d="M24.7,24.6c-0.2,0-0.4,0.1-0.6,0.3c-0.1,0.2-0.2,0.4-0.2,0.6v4.7h1.5v-4.7c0-0.2-0.1-0.5-0.2-0.6
		C25.1,24.7,24.9,24.6,24.7,24.6z"/>
	<path class="st1" d="M27,24.6c-0.2,0-0.4,0.1-0.6,0.3c-0.1,0.2-0.2,0.4-0.2,0.6v4.7h1.5v-4.7c0-0.2-0.1-0.5-0.2-0.6
		C27.4,24.7,27.2,24.6,27,24.6z"/>
	<path class="st1" d="M29.3,24.6c-0.2,0-0.4,0.1-0.6,0.3c-0.1,0.2-0.2,0.4-0.2,0.6v4.7H30v-4.7c0-0.2-0.1-0.5-0.2-0.6
		C29.7,24.7,29.5,24.6,29.3,24.6z"/>
	<path class="st1" d="M22.3,24.6c-0.2,0-0.4,0.1-0.6,0.3c-0.1,0.2-0.2,0.4-0.2,0.6v4.7H23v-4.7c0-0.2-0.1-0.5-0.2-0.6
		C22.8,24.7,22.6,24.6,22.3,24.6z"/>
	<path class="st1" d="M31.6,24.6c-0.2,0-0.4,0.1-0.6,0.3c-0.1,0.2-0.2,0.4-0.2,0.6v4.7h1.5v-4.7c0-0.2-0.1-0.5-0.2-0.6
		C32,24.7,31.8,24.6,31.6,24.6z"/>
	<path class="st1" d="M13.1,24.6c-0.2,0-0.4,0.1-0.6,0.3c-0.1,0.2-0.2,0.4-0.2,0.6v4.7h1.5v-4.7c0-0.2-0.1-0.5-0.2-0.6
		C13.5,24.7,13.3,24.6,13.1,24.6z"/>
	<path class="st1" d="M15.4,24.6c-0.2,0-0.4,0.1-0.6,0.3c-0.1,0.2-0.2,0.4-0.2,0.6v4.7h1.5v-4.7c0-0.2-0.1-0.5-0.2-0.6
		C15.8,24.7,15.6,24.6,15.4,24.6z"/>
	<path class="st1" d="M20,24.6c-0.2,0-0.4,0.1-0.6,0.3c-0.1,0.2-0.2,0.4-0.2,0.6v4.7h1.5v-4.7c0-0.2-0.1-0.5-0.2-0.6
		C20.4,24.7,20.2,24.6,20,24.6z"/>
	<path class="st1" d="M17.7,24.6c-0.2,0-0.4,0.1-0.6,0.3C17,25.1,17,25.3,17,25.6v4.7h1.5v-4.7c0-0.2-0.1-0.5-0.2-0.6
		C18.1,24.7,17.9,24.6,17.7,24.6z"/>
	<path class="st2" d="M11.4,37.5v-1.1h3.2v3.5c0,0.1,0,0.1,0.1,0.1c0.4,0.3,0.8,0.5,1.1,0.8v-4.4H19v6.4c0.5,0.3,0.9,0.5,1.3,0.7
		c0,0,0,0,0-0.1v-7h3.2v7c0.4-0.2,0.8-0.4,1.2-0.6v-6.4H28v4.5c0.4-0.3,0.8-0.6,1.2-0.9v-3.7h3.2v1c1.6-1.4,1.3-1.2,2.5-2.4
		c0,0-25.7,0-25.7,0.1C10.1,36.3,10.7,36.7,11.4,37.5z"/>
	<path class="st2" d="M33.5,30.3h-0.4v-5.4h0.4v-1H11.2v1h0.4v5.4h-0.4v1.3h22.2L33.5,30.3L33.5,30.3z M13.8,30.3h-1.5v-4.7
		c0-0.2,0.1-0.5,0.2-0.6c0.1-0.2,0.3-0.3,0.6-0.3s0.4,0.1,0.6,0.3c0.1,0.2,0.2,0.4,0.2,0.6v4.7H13.8z M16.2,30.3h-1.5v-4.7
		c0-0.2,0.1-0.5,0.2-0.6c0.1-0.2,0.3-0.3,0.6-0.3c0.2,0,0.4,0.1,0.6,0.3c0.1,0.2,0.2,0.4,0.2,0.6v4.7H16.2z M18.5,30.3H17v-4.7
		c0-0.2,0.1-0.5,0.2-0.6c0.1-0.2,0.3-0.3,0.6-0.3s0.4,0.1,0.6,0.3c0.1,0.2,0.2,0.4,0.2,0.6v4.7H18.5z M20.8,30.3h-1.5v-4.7
		c0-0.2,0.1-0.5,0.2-0.6c0.1-0.2,0.3-0.3,0.6-0.3c0.2,0,0.4,0.1,0.6,0.3c0.1,0.2,0.2,0.4,0.2,0.6v4.7H20.8z M23.1,30.3h-1.5v-4.7
		c0-0.2,0.1-0.5,0.2-0.6c0.1-0.2,0.3-0.3,0.6-0.3c0.2,0,0.4,0.1,0.6,0.3c0.1,0.2,0.2,0.4,0.2,0.6v4.7H23.1z M25.4,30.3h-1.5v-4.7
		c0-0.2,0.1-0.5,0.2-0.6c0.1-0.2,0.3-0.3,0.6-0.3s0.4,0.1,0.6,0.3c0.1,0.2,0.2,0.4,0.2,0.6v4.7H25.4z M27.7,30.3h-1.5v-4.7
		c0-0.2,0.1-0.5,0.2-0.6c0.1-0.2,0.3-0.3,0.6-0.3s0.4,0.1,0.6,0.3c0.1,0.2,0.2,0.4,0.2,0.6v4.7H27.7z M30.1,30.3h-1.5v-4.7
		c0-0.2,0.1-0.5,0.2-0.6c0.1-0.2,0.3-0.3,0.6-0.3c0.2,0,0.4,0.1,0.6,0.3c0.1,0.2,0.2,0.4,0.2,0.6v4.7H30.1z M32.4,30.3h-1.5v-4.7
		c0-0.2,0.1-0.5,0.2-0.6c0.1-0.2,0.3-0.3,0.6-0.3c0.2,0,0.4,0.1,0.6,0.3c0.1,0.2,0.2,0.4,0.2,0.6v4.7H32.4z"/>
	<rect x="10.3" y="31.8" class="st2" width="24.1" height="1.3"/>
	<path class="st2" d="M33.1,18.9h-0.3v-0.8c0,0-4.1-6.1-9.7-6.9c-0.2-0.4-0.6-1.5-1.2-1.7V6.4c0.1,0.5,0.4,0.8,0.9,1
		c0.8,0.1,2.1-1.2,2.3,0.1c0.1,0.6,0.2,0.5,0.4-0.1c0.4-0.9,0-2.2-0.6-2.6c-0.4-0.2-0.7,0-1.1,0.1c-0.7,0.2-1.3,0.1-1.7-0.5
		c-0.2-0.2-0.5-0.2-0.5,0.1c0,0.3,0,4.9,0,4.9c-0.4,0.1-0.8,0.5-1.2,1.8c-2.7,0.5-5.5,2.5-8.4,6.9v0.8h-0.4v1H33L33.1,18.9
		L33.1,18.9z"/>
	<path class="st2" d="M11.6,23.3h0.7v-1.4c0-0.2,0.3-0.3,0.8-0.3c0.4,0,0.8,0.1,0.8,0.3v1.4h0.8v-1.4c0-0.2,0.3-0.3,0.8-0.3
		c0.4,0,0.8,0.1,0.8,0.3v1.4H17v-1.4c0-0.2,0.3-0.3,0.8-0.3s0.8,0.1,0.8,0.3v1.4h0.8v-1.4c0-0.2,0.3-0.3,0.8-0.3s0.8,0.1,0.8,0.3
		v1.4h0.8v-1.4c0-0.2,0.3-0.3,0.8-0.3s0.8,0.1,0.8,0.3v1.4h0.8v-1.4c0-0.2,0.3-0.3,0.8-0.3s0.8,0.1,0.8,0.3v1.4h0.8v-1.4
		c0-0.2,0.3-0.3,0.8-0.3c0.4,0,0.8,0.1,0.8,0.3v1.4H29v-1.4c0-0.2,0.3-0.3,0.8-0.3c0.4,0,0.8,0.1,0.8,0.3v1.4h0.8v-1.4
		c0-0.2,0.3-0.3,0.8-0.3c0.4,0,0.8,0.1,0.8,0.3v1.4h0.7v-1.8h0.4v-1H11.2v1h0.4C11.6,21.5,11.6,23.3,11.6,23.3z"/>
	<polygon class="st2" points="7.7,33.3 8.9,34.8 35.1,34.8 36.3,33.3 	"/>
</g>
<path id="whiteband" class="st2" d="M0.4,7.9c0,0,0,11.1,0,13.9c0,18,21,26.5,21.5,26.5c0,0,21.7-9,21.7-25.9c0-11.7,0-14.3,0-14.7
	C43.6,7.6,23.9-8.8,0.4,7.9z M41.3,22.6c0,15.1-19.4,23.2-19.4,23.2c-0.4,0-19.2-7.6-19.2-23.8c0-2.5,0-12.4,0-12.4
	c21-14.9,38.6-0.2,38.6-0.2S41.3,12.1,41.3,22.6z"/>
<path id="redstrips" class="st3" d="M22,48.7L22,48.7c-0.3,0-22-8.4-22-27V7.6l0.2-0.1C23.6-9.2,43.7,7.2,43.9,7.3L44,7.4v14.9
	C44,39.4,22.3,48.6,22,48.7L22,48.7z M0.9,8.1v13.7c0,17.2,19.5,25.5,21,26.1c1.9-0.8,21.3-9.7,21.3-25.4V7.9
	C41.3,6.4,22.6-7.2,0.9,8.1z M22,46.2L22,46.2c-0.3,0-19.7-7.5-19.7-24.2V9.4l0.2-0.1c21-15,39-0.3,39.2-0.2l0.2,0.2v13.3
	C41.8,37.9,22.3,46.1,22,46.2L22,46.2z M3.1,9.8V22c0,15.3,17.3,22.7,18.8,23.3c1.8-0.8,19-8.7,19-22.7v-13
	C39.1,8.2,22.5-3.8,3.1,9.8z"/>
</svg>
