<?xml version="1.0" encoding="utf-8"?>
<!-- Generator: Adobe Illustrator 22.1.0, SVG Export Plug-In . SVG Version: 6.00 Build 0)  -->
<svg version="1.1" id="Layer_1" xmlns="http://www.w3.org/2000/svg" xmlns:xlink="http://www.w3.org/1999/xlink" x="0px" y="0px"
	 viewBox="0 0 44 48.7" style="enable-background:new 0 0 44 48.7;" xml:space="preserve">
<style type="text/css">
	.st0{fill:url(#shield_1_);}
	.st1{fill:#FFFFFF;}
	.st2{fill:#E21D39;}
</style>
<linearGradient id="shield_1_" gradientUnits="userSpaceOnUse" x1="43.5894" y1="24.3485" x2="0.4106" y2="24.3485">
	<stop  offset="0" style="stop-color:#4D4D4F"/>
	<stop  offset="0.5361" style="stop-color:#808285"/>
	<stop  offset="1" style="stop-color:#4D4D4F"/>
</linearGradient>
<path id="shield" class="st0" d="M0.4,7.9c0,0,0,11.1,0,13.9c0,18,21,26.5,21.5,26.5c0,0,21.7-9,21.7-25.9c0-16.9,0-14.7,0-14.7
	S23.8-8.8,0.4,7.9z"/>
<path id="caduceus" class="st1" d="M37.3,16.8c-2.2,0.1-5.4-3.3-7.9-5.5c-2.5-2.2-4.2-1-5,0.5c-0.5,0.9-1.1,1.4-1.6,1.6l0.1-1.6
	h-0.8c0.5-0.3,0.9-0.8,0.9-1.5c0-1-0.8-1.7-1.7-1.7c-1,0-1.7,0.7-1.7,1.7c0,0.7,0.4,1.2,0.9,1.5h-0.8l0.1,1.7
	c-0.4-0.2-1.2-0.7-1.8-1.7c-0.8-1.5-2.5-2.8-5-0.5c-2.5,2.2-5.7,5.6-7.9,5.5c-0.5,0-0.2,1.6,2.2,1.1c-0.2,0.3,1.1,1.4,2.8,0.2
	c0,0.2,0.9,1.3,2.7,0c0,0.3,1.6,0.9,2.6-0.2c0,0.3,1.5,0.4,2.1-0.3c0,0.2,1.2,0.6,2-0.4c0,0.2,0.3,0.2,0.6,0.1l0.3,6.4
	c-1.5-0.1-2.5-1-2.6-1.8c0-0.1,0-0.2,0-0.3c0.2-0.1,0.8-0.4,1.2-1c0.6-0.7,0.7-1.3,0.9-1.6c0-0.1-0.1-0.7-0.4-0.9
	c-0.2,0.1-0.9,0.1-1.3,0c-0.4,0-1.6,0.1-2,1.7c-0.4,0.6-0.6,1.4-0.6,2.1c0,1.5,0.9,2.8,2.3,3.5c-0.6,0.6-0.9,1.4-0.9,2.2
	c0,1.1,0.7,2.1,1.7,2.6c-0.4,0.4-0.7,1-0.7,1.6c0,0.9,0.5,1.6,1.3,2c-0.3,0.3-0.5,0.8-0.5,1.2c0,0.6,0.3,1.1,0.8,1.4
	c-0.4,0.3-0.6,0.7-0.6,1.1c0,0.5,0.3,0.9,0.7,1.1c-0.2-0.2-0.2-0.4-0.3-0.7c0-0.6,0.5-1.2,1.3-1.2l0,0c0,0,0,0,0,0l0.1,2h0.4l0.1-2
	c0,0,0,0,0,0v0c0.7,0.1,1.3,0.6,1.3,1.2c0,0.2-0.1,0.5-0.3,0.7c0.4-0.3,0.7-0.7,0.7-1.1c0-0.5-0.2-0.9-0.6-1.1
	c0.5-0.3,0.8-0.8,0.8-1.4c0-0.5-0.2-0.9-0.5-1.2c0.8-0.4,1.3-1.1,1.3-2c0-0.6-0.2-1.2-0.7-1.6c1-0.5,1.7-1.5,1.7-2.6
	c0-0.8-0.3-1.6-0.9-2.2c1.4-0.7,2.3-2,2.3-3.5c0-0.8-0.2-1.5-0.6-2.1c-0.4-1.6-1.7-1.7-2-1.7c-0.4,0-1.1,0.1-1.3,0
	c-0.2,0.3-0.3,0.8-0.4,0.9c0.3,0.3,0.4,0.9,0.9,1.6c0.5,0.6,1,0.9,1.2,1c0,0.1,0,0.2,0,0.3c0,0.8-1.1,1.6-2.6,1.8l0.3-6.4
	c0.2,0,0.4,0,0.4-0.2c0.8,1,2,0.7,2,0.4c0.6,0.8,2.1,0.6,2.1,0.3c1,1,2.5,0.5,2.6,0.2c1.8,1.3,2.7,0.2,2.7,0c1.7,1.2,3,0.1,2.8-0.2
	C37.5,18.4,37.8,16.8,37.3,16.8z M18.6,27.8c0-0.6,0.7-1.2,1.8-1.4l0.1,2.8C19.5,29,18.6,28.4,18.6,27.8z M19.3,32.1
	c0-0.4,0.5-0.9,1.4-1.1l0.1,2.1C19.9,33,19.3,32.6,19.3,32.1z M19.8,35.3c0-0.3,0.4-0.7,1-0.8l0.1,1.6C20.3,36,19.8,35.7,19.8,35.3z
	 M21.6,36.1l0.1-1.6c0.6,0.1,1,0.5,1,0.8C22.7,35.7,22.3,36,21.6,36.1z M21.8,33.1l0.1-2.1c0.8,0.1,1.4,0.6,1.4,1.1
	C23.2,32.6,22.6,33,21.8,33.1z M23.9,27.8c0,0.6-0.8,1.2-1.9,1.3l0.1-2.8C23.2,26.6,23.9,27.2,23.9,27.8z"/>
<path id="whiteband" class="st1" d="M0.4,7.9c0,0,0,11.1,0,13.9c0,18,21,26.5,21.5,26.5c0,0,21.7-9,21.7-25.9c0-11.7,0-14.3,0-14.7
	C43.6,7.6,23.9-8.8,0.4,7.9z M41.3,22.6c0,15.1-19.4,23.2-19.4,23.2c-0.4,0-19.2-7.6-19.2-23.8c0-2.5,0-12.4,0-12.4
	c21-14.9,38.6-0.2,38.6-0.2S41.3,12.1,41.3,22.6z"/>
<path id="redstrips" class="st2" d="M22,48.7L22,48.7c-0.3,0-22-8.4-22-27V7.6l0.2-0.1C23.6-9.2,43.7,7.2,43.9,7.3L44,7.4v14.9
	C44,39.4,22.3,48.6,22,48.7L22,48.7z M0.9,8.1v13.7c0,17.2,19.5,25.5,21,26.1c1.9-0.8,21.3-9.7,21.3-25.4V7.9
	C41.3,6.4,22.6-7.2,0.9,8.1z M22,46.2L22,46.2c-0.3,0-19.7-7.5-19.7-24.2V9.4l0.2-0.1c21-15,39-0.3,39.2-0.2l0.2,0.2v13.3
	C41.8,37.9,22.3,46.1,22,46.2L22,46.2z M3.1,9.8V22c0,15.3,17.3,22.7,18.8,23.3c1.8-0.8,19-8.7,19-22.7v-13
	C39.1,8.2,22.5-3.8,3.1,9.8z"/>
</svg>
