<?xml version="1.0" encoding="utf-8"?>
<!-- Generator: Adobe Illustrator 22.1.0, SVG Export Plug-In . SVG Version: 6.00 Build 0)  -->
<svg version="1.1" id="Layer_1" xmlns="http://www.w3.org/2000/svg" xmlns:xlink="http://www.w3.org/1999/xlink" x="0px" y="0px"
	 viewBox="0 0 44 48.7" style="enable-background:new 0 0 44 48.7;" xml:space="preserve">
<style type="text/css">
	.st0{fill:url(#shield_1_);}
	.st1{fill:#FFFFFF;}
	.st2{fill:#E21D39;}
</style>
<linearGradient id="shield_1_" gradientUnits="userSpaceOnUse" x1="43.5894" y1="24.3485" x2="0.4106" y2="24.3485">
	<stop  offset="0" style="stop-color:#4D4D4F"/>
	<stop  offset="0.5361" style="stop-color:#808285"/>
	<stop  offset="1" style="stop-color:#4D4D4F"/>
</linearGradient>
<path id="shield" class="st0" d="M0.4,7.9c0,0,0,11.1,0,13.9c0,18,21,26.5,21.5,26.5c0,0,21.7-9,21.7-25.9c0-16.9,0-14.7,0-14.7
	S23.8-8.8,0.4,7.9z"/>
<g id="bell">
	<path class="st1" d="M21.9,23.7c8.7,0,11.9-4.6,11.9-4.6S33.7,9.5,23.7,8.5c0.1,0.1,0.1,0.2,0.1,0.4c0,0.7-0.9,1.2-1.9,1.2
		c-1.1,0-1.9-0.5-1.9-1.2c0-0.1,0-0.2,0.1-0.4c-9.7,1.1-9.9,10.6-9.9,10.6S13.2,23.7,21.9,23.7z M26.9,10.5c3.1,1.4,5.5,4,5.5,7.1
		c0,3.1-6.1,4.3-6.1,4.3C35.9,18.6,26.9,10.5,26.9,10.5z"/>
	<path class="st1" d="M25.8,28.5v-2.3c9.7-2.1,8.6-5.5,8.6-5.5s-2.4,4.6-12.3,4.6c-9.9,0-12.5-4.6-12.5-4.6
		C10.6,30.6,25.8,28.5,25.8,28.5z"/>
	<path class="st1" d="M34.6,21.3c0,0,0.7,6.4-8.3,7.9L26.2,30c0,0-16.8,2.1-17.1-8.9c0,0-1.9,1.5-1.5,6.3c0.4,4.9,12.5,7.2,19.2,6.1
		v-1.8c0,0,9.8-1.8,9.6-5.9C36.3,21.5,34.6,21.3,34.6,21.3z"/>
	<path class="st1" d="M21.9,9.5c0.8,0,1.5-0.5,1.5-1.1c0-0.1,0-0.2-0.1-0.4c-0.1-0.2-0.2-0.3-0.4-0.5V6.3c0-0.2-0.2-0.4-0.4-0.4
		h-1.1c-0.2,0-0.4,0.2-0.4,0.4v1.3c-0.2,0.1-0.3,0.3-0.4,0.5c-0.1,0.1-0.1,0.2-0.1,0.4C20.5,9,21.1,9.5,21.9,9.5z"/>
</g>
<path id="whiteband" class="st1" d="M0.4,7.9c0,0,0,11.1,0,13.9c0,18,21,26.5,21.5,26.5c0,0,21.7-9,21.7-25.9c0-11.7,0-14.3,0-14.7
	C43.6,7.6,23.9-8.8,0.4,7.9z M41.3,22.6c0,15.1-19.4,23.2-19.4,23.2c-0.4,0-19.2-7.6-19.2-23.8c0-2.5,0-12.4,0-12.4
	c21-14.9,38.6-0.2,38.6-0.2S41.3,12.1,41.3,22.6z"/>
<path id="redstrips" class="st2" d="M22,48.7L22,48.7c-0.3,0-22-8.4-22-27V7.6l0.2-0.1C23.6-9.2,43.7,7.2,43.9,7.3L44,7.4v14.9
	C44,39.4,22.3,48.6,22,48.7L22,48.7z M0.9,8.1v13.7c0,17.2,19.5,25.5,21,26.1c1.9-0.8,21.3-9.7,21.3-25.4V7.9
	C41.3,6.4,22.6-7.2,0.9,8.1z M22,46.2L22,46.2c-0.3,0-19.7-7.5-19.7-24.2V9.4l0.2-0.1c21-15,39-0.3,39.2-0.2l0.2,0.2v13.3
	C41.8,37.9,22.3,46.1,22,46.2L22,46.2z M3.1,9.8V22c0,15.3,17.3,22.7,18.8,23.3c1.8-0.8,19-8.7,19-22.7v-13
	C39.1,8.2,22.5-3.8,3.1,9.8z"/>
</svg>
