<?xml version="1.0" encoding="utf-8"?>
<!-- Generator: Adobe Illustrator 22.1.0, SVG Export Plug-In . SVG Version: 6.00 Build 0)  -->
<svg version="1.1" id="Layer_1" xmlns="http://www.w3.org/2000/svg" xmlns:xlink="http://www.w3.org/1999/xlink" x="0px" y="0px"
	 viewBox="0 0 44 48.7" style="enable-background:new 0 0 44 48.7;" xml:space="preserve">
<style type="text/css">
	.st0{fill:url(#shield_1_);}
	.st1{fill:#FFFFFF;}
	.st2{fill:#E21D39;}
	.st3{fill:none;}
</style>
<linearGradient id="shield_1_" gradientUnits="userSpaceOnUse" x1="43.5894" y1="24.3485" x2="0.4106" y2="24.3485">
	<stop  offset="0" style="stop-color:#4D4D4F"/>
	<stop  offset="0.5361" style="stop-color:#808285"/>
	<stop  offset="1" style="stop-color:#4D4D4F"/>
</linearGradient>
<path id="shield" class="st0" d="M0.4,7.9c0,0,0,11.1,0,13.9c0,18,21,26.5,21.5,26.5c0,0,21.7-9,21.7-25.9c0-16.9,0-14.7,0-14.7
	S23.8-8.8,0.4,7.9z"/>
<path id="whiteband" class="st1" d="M0.4,7.9c0,0,0,11.1,0,13.9c0,18,21,26.5,21.5,26.5c0,0,21.7-9,21.7-25.9c0-11.7,0-14.3,0-14.7
	C43.6,7.6,23.9-8.8,0.4,7.9z M41.3,22.6c0,15.1-19.4,23.2-19.4,23.2c-0.4,0-19.2-7.6-19.2-23.8c0-2.5,0-12.4,0-12.4
	c21-14.9,38.6-0.2,38.6-0.2S41.3,12.1,41.3,22.6z"/>
<path id="redstrips" class="st2" d="M22,48.7L22,48.7c-0.3,0-22-8.4-22-27V7.6l0.2-0.1C23.6-9.2,43.7,7.2,43.9,7.3L44,7.4v14.9
	C44,39.4,22.3,48.6,22,48.7L22,48.7z M0.9,8.1v13.7c0,17.2,19.5,25.5,21,26.1c1.9-0.8,21.3-9.7,21.3-25.4V7.9
	C41.3,6.4,22.6-7.2,0.9,8.1z M22,46.2L22,46.2c-0.3,0-19.7-7.5-19.7-24.2V9.4l0.2-0.1c21-15,39-0.3,39.2-0.2l0.2,0.2v13.3
	C41.8,37.9,22.3,46.1,22,46.2L22,46.2z M3.1,9.8V22c0,15.3,17.3,22.7,18.8,23.3c1.8-0.8,19-8.7,19-22.7v-13
	C39.1,8.2,22.5-3.8,3.1,9.8z"/>
<g id="shipcontainer">
	<polygon class="st3" points="25.2,19.5 25.2,19.5 25.2,18.5 25.6,18.5 25.6,19.3 25.7,19.2 25.7,16.4 25.2,16.4 	"/>
	<polygon class="st3" points="23.7,20.2 23.7,20.2 23.7,19.4 24.2,19.4 24.2,20 24.2,20 24.2,16 23.7,16 	"/>
	<polygon class="st3" points="26.9,18.5 26.9,16.8 26.5,16.8 26.5,18.9 26.5,19 26.5,18.5 	"/>
	<polygon class="st3" points="25.2,29.7 25.2,29.3 25.2,29.3 25.2,31.7 25.7,31.7 25.7,29.5 25.6,29.5 25.6,29.7 	"/>
	<rect x="22.2" y="28.3" class="st3" width="0.5" height="4.2"/>
	<polygon class="st3" points="23.7,29.7 23.7,28.5 23.7,28.5 23.7,32.1 24.2,32.1 24.2,28.8 24.2,28.8 24.2,29.7 	"/>
	<rect x="22.2" y="15.6" class="st3" width="0.5" height="4.4"/>
	<polygon class="st3" points="26.5,29.9 26.5,29.9 26.5,31.3 26.9,31.3 26.9,30.4 26.5,30.4 	"/>
	<rect x="28.9" y="17.5" class="st3" width="0.4" height="1"/>
	<polygon class="st3" points="30.5,30.3 30.5,27.9 30.4,27.9 30.4,30.3 	"/>
	<rect x="28.9" y="30.4" class="st3" width="0.4" height="0.2"/>
	<polygon class="st3" points="27.7,29.3 27.7,29.3 27.7,30.9 28.1,30.9 28.1,30.4 27.7,30.4 	"/>
	<polygon class="st3" points="28.1,18.5 28.1,17.2 27.7,17.2 27.7,19.6 27.7,19.6 27.7,18.5 	"/>
	<rect x="11.2" y="16.4" class="st3" width="0.2" height="4.9"/>
	<rect x="11.2" y="28.6" class="st3" width="0.2" height="3.3"/>
	<rect x="14.9" y="13.7" class="st3" width="0.6" height="20.6"/>
	<rect x="17" y="27" class="st3" width="0.6" height="6.9"/>
	<polygon class="st3" points="11.4,32.9 11,32.9 11,32.9 7.5,31 7.5,24.5 7.5,24.5 7.5,24.4 7.5,17.5 11.2,15.1 11.2,15.4 
		11.4,15.4 11.4,14.5 4.9,19 4.9,19.5 5.1,19.5 5.1,19 7.3,17.6 7.3,30.8 5.1,29.6 5.1,29.4 4.9,29.4 4.9,29.7 11.4,33.6 	"/>
	<rect x="4.9" y="23.5" class="st3" width="0.2" height="2.9"/>
	<rect x="4.9" y="27" class="st3" width="0.2" height="1.8"/>
	<polygon class="st3" points="30.1,28.1 30.1,30.3 30.2,30.3 30.2,28 	"/>
	<rect x="11.2" y="22.4" class="st3" width="0.2" height="5.2"/>
	<rect x="17" y="14.3" class="st3" width="0.6" height="7.1"/>
	<rect x="20.6" y="15.2" class="st3" width="0.6" height="6.2"/>
	<rect x="20.6" y="28.3" class="st3" width="0.6" height="4.6"/>
	<polygon class="st3" points="19.5,21.4 19.5,14.7 18.9,14.7 18.9,22.6 18.9,22.6 18.9,21.4 	"/>
	<polygon class="st3" points="18.9,25.9 18.9,25.9 18.9,33.4 19.5,33.4 19.5,27 18.9,27 	"/>
	<polygon class="st3" points="31.1,29.5 31.1,27.6 31.1,27.6 31.1,30 31.5,30 31.5,27.4 31.4,27.4 31.4,29.5 	"/>
	<polygon class="st3" points="33.9,22.9 33.9,22.9 33.9,21.6 34.2,21.6 34.2,23 34.2,23.1 34.2,19 33.9,19 	"/>
	<polygon class="st3" points="36.4,27.7 36.4,24.9 36.4,24.9 36.4,28.4 36.6,28.4 36.6,24.8 36.6,24.8 36.6,27.7 	"/>
	<polygon class="st3" points="33.9,27.7 33.9,26.2 33.9,26.2 33.9,29.1 34.2,29.1 34.2,26 34.2,26 34.2,27.7 	"/>
	<rect x="33" y="18.7" class="st3" width="0" height="3.7"/>
	<polygon class="st3" points="33,29.2 33,26.6 33,26.6 33,29.4 33.3,29.4 33.3,26.5 33.2,26.5 33.2,29.2 	"/>
	<polygon class="st3" points="33.2,22.6 33.3,22.6 33.3,18.7 33.2,18.7 	"/>
	<polygon class="st3" points="34.8,23.4 34.8,23.4 34.8,21.6 35,21.6 35,23.5 35.1,23.5 35.1,19.3 34.8,19.3 	"/>
	<polygon class="st3" points="35.6,27.7 35.6,25.3 35.6,25.3 35.6,28.6 35.9,28.6 35.9,25.2 35.8,25.2 35.8,27.7 	"/>
	<polygon class="st3" points="35.6,23.8 35.6,23.8 35.6,21.6 35.8,21.6 35.8,23.9 35.9,24 35.9,19.5 35.6,19.5 	"/>
	<polygon class="st3" points="34.8,27.7 34.8,25.7 34.8,25.7 34.8,28.9 35.1,28.9 35.1,25.6 35,25.6 35,27.7 	"/>
	<polygon class="st3" points="36.4,24.2 36.4,24.3 36.4,21.6 36.6,21.6 36.6,24.4 36.6,24.4 36.6,19.7 36.4,19.7 	"/>
	<polygon class="st3" points="31.1,21.4 31.1,21.4 31.1,18.5 31.4,18.5 31.4,21.5 31.5,21.6 31.5,18.2 31.1,18.2 	"/>
	<rect x="38.3" y="20.3" class="st3" width="0.2" height="7.4"/>
	<polygon class="st3" points="32.1,29.5 32.1,27.1 32,27.1 32,29.7 32.4,29.7 32.4,26.9 32.3,27 32.3,29.5 	"/>
	<polygon class="st3" points="32,21.9 32.1,21.9 32.1,18.5 32.3,18.5 32.3,22.1 32.4,22.1 32.4,18.5 32,18.5 	"/>
	<polygon class="st3" points="30.1,20.9 30.2,20.9 30.2,18.5 30.4,18.5 30.4,21 30.5,21.1 30.5,17.8 30.1,17.8 	"/>
	<rect x="4.9" y="20.1" class="st3" width="0.2" height="2.7"/>
	<polygon class="st3" points="37,24.6 37,24.6 37,21.6 37.3,21.6 37.3,27.7 37,27.7 37,24.6 37,24.6 37,28.2 37.3,28.2 37.3,19.9 
		37,19.9 	"/>
	<rect x="37.6" y="20.1" class="st3" width="0.3" height="7.8"/>
	<path class="st1" d="M13.1,12.3v23.9l26.4-8v-8.1L13.1,12.3z M15.5,34.4h-0.6V13.7h0.6V34.4z M17.6,21.4v1.9v2V27v6.9H17V27v-2.1
		v-1.4v-2.2v-7.1h0.6V21.4z M19.5,33.4h-0.6V14.7h0.6V33.4z M21.2,32.9h-0.6V15.2h0.6V32.9z M22.7,32.5h-0.5V15.6h0.5V32.5z
		 M24.2,32.1h-0.5l0-11.9l0-4.2h0.5V32.1z M25.7,31.7h-0.5v-2.4V16.4h0.5V31.7z M26.9,31.3h-0.5V16.8h0.5V31.3z M28.1,30.9h-0.4
		V17.2h0.4V30.9z M29.3,30.6h-0.4V17.5h0.4V30.6z M30.5,30.3L30.5,30.3h-0.3h-0.1V17.8h0.4V30.3z M31.5,30h-0.4V18.2h0.4V30z
		 M32.4,29.7H32V18.5h0.4V29.7z M33.3,29.4H33V18.7h0h0.3V29.4z M34.2,29.1h-0.3V19h0.3V29.1z M35.1,28.9h-0.3v-9.6h0.3V28.9z
		 M35.9,28.6h-0.3v-9.1h0.3V28.6z M36.6,28.4h-0.3v-8.7h0.3V28.4z M37.3,28.2H37v-3.6l0,0v0l0,0v-4.7h0.3V28.2z M37.9,28h-0.3v-7.8
		h0.3V28z M38.6,27.8h-0.2v-7.4h0.2V27.8z"/>
	<path class="st1" d="M4.5,31l8.2,5.3v-24l-8.2,6.4V31z M11.4,31.9h-0.2v-3.3h0.2V31.9z M11.4,27.6h-0.2v-5.2h0.2V27.6z M11.4,21.4
		h-0.2v-4.9h0.2V21.4z M4.9,20.1h0.2v2.7H4.9V20.1z M4.9,23.5h0.2v2.9H4.9V23.5z M4.9,27h0.2v1.8H4.9V27z M4.9,29.4h0.2v0.2l2.2,1.3
		V17.6L5.1,19v0.4H4.9V19l6.5-4.5v0.9h-0.2v-0.4l-3.7,2.5l0,6.9v0h0l0,6.5l3.5,1.9v0.1h0.4v0.6l-6.5-3.9V29.4z"/>
</g>
</svg>
