<?xml version="1.0" encoding="utf-8"?>
<!-- Generator: Adobe Illustrator 22.1.0, SVG Export Plug-In . SVG Version: 6.00 Build 0)  -->
<svg version="1.1" id="Layer_1" xmlns="http://www.w3.org/2000/svg" xmlns:xlink="http://www.w3.org/1999/xlink" x="0px" y="0px"
	 viewBox="0 0 44 48.7" style="enable-background:new 0 0 44 48.7;" xml:space="preserve">
<style type="text/css">
	.st0{fill:url(#shield_1_);}
	.st1{fill:none;}
	.st2{fill:#FFFFFF;}
	.st3{fill:#E21D39;}
</style>
<linearGradient id="shield_1_" gradientUnits="userSpaceOnUse" x1="43.5894" y1="24.3485" x2="0.4106" y2="24.3485">
	<stop  offset="0" style="stop-color:#4D4D4F"/>
	<stop  offset="0.5361" style="stop-color:#808285"/>
	<stop  offset="1" style="stop-color:#4D4D4F"/>
</linearGradient>
<path id="shield" class="st0" d="M0.4,7.9c0,0,0,11.1,0,13.9c0,18,21,26.5,21.5,26.5c0,0,21.7-9,21.7-25.9c0-16.9,0-14.7,0-14.7
	S23.8-8.8,0.4,7.9z"/>
<g id="building">
	<polygon class="st1" points="18.8,15.2 18.9,15.6 22.4,18.7 22.3,18.3 	"/>
	<polygon class="st1" points="18.9,15.8 19,16.3 22.6,19.5 22.5,19 	"/>
	<polygon class="st1" points="18.7,14.5 18.7,14.8 22.2,17.9 22.1,17.6 	"/>
	<polygon class="st1" points="19.1,16.6 19.2,17 22.9,20.4 22.7,19.9 	"/>
	<polygon class="st1" points="23.6,20.6 23.7,21.1 27.3,24.3 27.1,23.8 	"/>
	<polygon class="st1" points="19,24.2 15.3,24.4 15.3,25.1 19,24.8 	"/>
	<polygon class="st1" points="23.9,21.5 24,22 27.6,25.2 27.4,24.7 	"/>
	<polygon class="st1" points="23.1,19.1 23.2,19.5 26.6,22.5 26.4,22.1 	"/>
	<polygon class="st1" points="24.1,22.4 24.3,23 28,26.3 27.8,25.6 	"/>
	<polygon class="st1" points="22.9,18.3 23,18.6 26.3,21.6 26.1,21.2 	"/>
	<polygon class="st1" points="23.3,19.7 23.5,20.3 26.9,23.4 26.7,22.8 	"/>
	<polygon class="st1" points="15.8,38.8 15.8,40.5 21.3,40.1 21,38.4 	"/>
	<polygon class="st1" points="26.5,33.2 21.4,28.9 21.6,29.8 26.8,34.2 	"/>
	<polygon class="st1" points="20.7,36 15.7,36.4 15.7,37.8 20.9,37.5 	"/>
	<polygon class="st1" points="27,34.9 21.7,30.5 21.9,31.6 27.3,36.2 	"/>
	<polygon class="st1" points="22.6,35.5 28.5,40.4 28.1,39 22.4,34.2 	"/>
	<polygon class="st1" points="19.8,30.1 15.5,30.3 15.5,31.4 20,31.2 	"/>
	<polygon class="st1" points="19.3,26.8 15.4,27.1 15.4,28 19.5,27.7 	"/>
	<polygon class="st1" points="20.4,33.9 15.6,34.1 15.7,35.5 20.6,35.1 	"/>
	<polygon class="st1" points="19.6,28.4 15.4,28.7 15.5,29.7 19.7,29.4 	"/>
	<polygon class="st1" points="20.1,32.1 15.5,32.3 15.6,33.3 20.3,33 	"/>
	<polygon class="st1" points="19.1,25.4 15.3,25.6 15.3,26.5 19.3,26.2 	"/>
	<polygon class="st1" points="24.6,26.5 24.4,25.9 20.1,22.1 20.2,22.6 	"/>
	<polygon class="st1" points="23.4,22.2 23.2,21.6 19.4,18.1 19.5,18.7 	"/>
	<polygon class="st1" points="18.8,22.8 15.2,23.1 15.3,23.9 18.9,23.6 	"/>
	<polygon class="st1" points="23.6,23.1 23.5,22.5 19.5,19 19.6,19.5 	"/>
	<polygon class="st1" points="18.6,21.7 15.2,22 15.2,22.5 18.7,22.3 	"/>
	<polygon class="st1" points="19.2,17.4 19.3,17.8 23.1,21.2 23,20.7 	"/>
	<polygon class="st1" points="18.3,19.6 15.1,19.9 15.1,20.5 18.4,20.3 	"/>
	<polygon class="st1" points="18.4,20.7 15.2,20.9 15.2,21.5 18.5,21.2 	"/>
	<polygon class="st1" points="22,32.2 22.2,33.3 27.9,38.1 27.5,36.9 	"/>
	<polygon class="st1" points="18.2,18.8 15.1,19 15.1,19.5 18.2,19.2 	"/>
	<polygon class="st1" points="23.9,24.1 23.8,23.6 19.7,20.1 19.8,20.5 	"/>
	<polygon class="st1" points="24.8,24.5 24.9,25 28.8,28.4 28.6,27.9 	"/>
	<polygon class="st1" points="25.5,26.8 25.7,27.4 29.8,31 29.5,30.3 	"/>
	<polygon class="st1" points="25.9,28 26.1,28.8 30.3,32.5 30,31.6 	"/>
	<polygon class="st1" points="24.4,23.4 24.6,24 28.4,27.3 28.2,26.7 	"/>
	<polygon class="st1" points="30.9,34 30.6,33.1 26.3,29.4 26.6,30.3 	"/>
	<polygon class="st1" points="25.1,25.6 25.3,26.1 29.3,29.7 29,29 	"/>
	<polygon class="st1" points="25.4,29.4 25.1,28.4 20.5,24.4 20.7,25.4 	"/>
	<polygon class="st1" points="25,27.9 24.8,27.1 20.3,23.3 20.5,24 	"/>
	<polygon class="st1" points="24.2,25.2 24.1,24.7 19.9,21 20,21.5 	"/>
	<polygon class="st1" points="25.8,30.8 25.6,29.9 20.8,25.9 21,26.6 	"/>
	<polygon class="st1" points="26.3,32.5 26,31.6 21.1,27.4 21.3,28.2 	"/>
	<polygon class="st1" points="13.1,18.2 10.8,18.4 10.7,18.9 13.1,18.7 	"/>
	<polygon class="st1" points="13.2,14 11.3,14.1 11.3,14.4 13.2,14.3 	"/>
	<polygon class="st1" points="13.1,16.8 10.9,16.9 10.9,17.3 13.1,17.1 	"/>
	<polygon class="st1" points="13.2,12.2 11.5,12.2 11.5,12.6 13.2,12.5 	"/>
	<polygon class="st1" points="13.2,12.8 11.4,13 11.4,13.2 13.2,13 	"/>
	<polygon class="st1" points="13.1,14.6 11.2,14.8 11.2,15.1 13.1,15 	"/>
	<polygon class="st1" points="13.1,16 11,16.1 11,16.5 13.1,16.4 	"/>
	<polygon class="st1" points="13.1,15.3 11.1,15.4 11.1,15.8 13.1,15.6 	"/>
	<polygon class="st1" points="13.2,13.4 11.4,13.5 11.3,13.7 13.2,13.6 	"/>
	<polygon class="st1" points="13.2,11.5 11.6,11.6 11.5,12 13.2,11.9 	"/>
	<polygon class="st1" points="14.9,12.4 17.2,12.2 17.2,12 14.8,12.1 	"/>
	<polygon class="st1" points="14.9,12.9 17.3,12.8 17.2,12.5 14.9,12.7 	"/>
	<polygon class="st1" points="14.8,11.8 17.1,11.7 17.1,11.5 14.8,11.6 	"/>
	<polygon class="st1" points="13.2,11.1 11.7,11.1 11.6,11.3 13.2,11.3 	"/>
	<polygon class="st1" points="13,35.7 13.1,34.3 8.8,34.5 8.6,36 	"/>
	<polygon class="st1" points="13.1,19.1 10.7,19.3 10.6,19.8 13.1,19.6 	"/>
	<polygon class="st1" points="13.1,32.4 9,32.6 8.9,33.8 13.1,33.5 	"/>
	<polygon class="st1" points="13.1,17.5 10.9,17.7 10.8,18 13.1,17.8 	"/>
	<polygon class="st1" points="27.6,33.5 32.2,37.5 31.8,36.4 27.3,32.6 	"/>
	<polygon class="st1" points="13.1,30.5 9.3,30.7 9.1,31.8 13.1,31.6 	"/>
	<polygon class="st1" points="13.1,24.6 10,24.8 9.9,25.5 13.1,25.2 	"/>
	<polygon class="st1" points="13.1,27.2 9.7,27.5 9.5,28.4 13.1,28.1 	"/>
	<polygon class="st1" points="13.1,28.8 9.5,29.1 9.3,30 13.1,29.8 	"/>
	<polygon class="st1" points="13.1,25.8 9.8,26 9.7,26.8 13.1,26.6 	"/>
	<polygon class="st1" points="13.1,20 10.5,20.2 10.5,20.9 13.1,20.7 	"/>
	<polygon class="st1" points="14.9,13.5 17.4,13.4 17.3,13.1 14.9,13.3 	"/>
	<polygon class="st1" points="13.1,21.1 10.4,21.3 10.3,21.9 13.1,21.6 	"/>
	<polygon class="st1" points="13.1,23.2 10.1,23.4 10,24.3 13.1,24 	"/>
	<polygon class="st1" points="13.1,22.2 10.3,22.4 10.2,22.9 13.1,22.7 	"/>
	<polygon class="st1" points="14.8,11.3 17,11.2 17,11.1 14.7,11.1 14.8,11.1 	"/>
	<polygon class="st1" points="27.8,24.2 31.1,27.1 30.8,26.4 27.5,23.5 	"/>
	<polygon class="st1" points="27.4,23.2 30.6,26 30.4,25.6 27.2,22.8 	"/>
	<polygon class="st1" points="28.2,25.1 31.5,28.1 31.3,27.6 27.9,24.6 	"/>
	<polygon class="st1" points="27.1,22.3 30.2,25.2 29.9,24.6 26.9,21.9 	"/>
	<polygon class="st1" points="28.5,26 32,29.1 31.7,28.5 28.3,25.5 	"/>
	<polygon class="st1" points="29,22.6 28.8,22 25.9,19.4 26.1,19.9 	"/>
	<polygon class="st1" points="14.9,14.2 17.5,14 17.4,13.7 14.9,13.8 	"/>
	<polygon class="st1" points="26.4,20.7 29.5,23.5 29.3,23.1 26.3,20.3 	"/>
	<polygon class="st1" points="30.9,32 34.8,35.4 34.4,34.6 30.6,31.2 	"/>
	<polygon class="st1" points="30.3,30.6 34.2,34 33.8,33.2 30,29.9 	"/>
	<polygon class="st1" points="27,31.8 31.5,35.6 31.2,34.7 26.8,30.9 	"/>
	<polygon class="st1" points="29.4,28.2 33,31.4 32.7,30.6 29.1,27.5 	"/>
	<polygon class="st1" points="29,27.1 32.5,30.2 32.1,29.5 28.7,26.4 	"/>
	<polygon class="st1" points="29.8,29.3 33.5,32.6 33.3,32 29.6,28.8 	"/>
	<polygon class="st1" points="26.7,21.5 29.8,24.2 29.6,23.9 26.6,21.1 	"/>
	<polygon class="st1" points="15,17.7 18,17.5 17.9,17.2 15,17.4 	"/>
	<polygon class="st1" points="15,17 17.9,16.8 17.8,16.4 15,16.6 	"/>
	<polygon class="st1" points="21.4,15 21.2,14.5 18.1,11.6 18.3,12.2 	"/>
	<polygon class="st1" points="15.1,18.6 18.1,18.4 18,17.9 15.1,18.1 	"/>
	<polygon class="st1" points="14.9,14.8 17.6,14.7 17.5,14.3 14.9,14.5 	"/>
	<polygon class="st1" points="15,15.5 17.6,15.3 17.6,14.9 14.9,15.1 	"/>
	<polygon class="st1" points="15,16.2 17.8,16 17.7,15.6 15,15.8 	"/>
	<polygon class="st1" points="22.3,16.4 25.4,19.2 25.2,18.7 22.2,16 	"/>
	<polygon class="st1" points="22.8,17.9 26,20.8 25.8,20.4 22.6,17.5 	"/>
	<polygon class="st1" points="18.6,14.2 22,17.2 21.9,16.8 18.6,13.8 	"/>
	<polygon class="st1" points="22.5,17.2 25.7,20.1 25.6,19.7 22.4,16.8 	"/>
	<polygon class="st1" points="25,18.3 24.9,17.9 21.9,15.1 22,15.6 	"/>
	<polygon class="st1" points="18.4,12.9 21.6,15.8 21.5,15.3 18.3,12.5 	"/>
	<polygon class="st1" points="18.5,13.5 21.8,16.5 21.7,16.1 18.4,13.2 	"/>
	<path class="st2" d="M9.2,36.9l3.9-0.3l0,1.4l-2.7,0.2c0.3,0.3,0.6,0.6,1,0.9L13,39l0,1.6c1,0.8,2,1.5,2.9,2.1l0-1.1l5.6-0.4
		l0.3,1.7l-4.8,0.4c0.5,0.3,1,0.6,1.5,0.9l3.4-0.3l0.3,1.8c0.4-0.2,1.5-0.7,2.9-1.4l-0.9-0.7l-0.4-2l2.5,2c0.3-0.2,0.5-0.3,0.8-0.5
		l-3.6-2.9l-0.3-1.3l4.6,3.7c0.2-0.1,0.4-0.2,0.6-0.4l-5.3-4.4l-0.3-1.4l6,4.9l0.1,0.5c0.3-0.2,0.6-0.4,1-0.7l-0.3-0.9l0.7,0.6
		c0.1-0.1,0.3-0.2,0.4-0.3l-1.5-1.2L28.9,38l2.4,2c0.1-0.1,0.2-0.2,0.3-0.3l-2.9-2.5L28.3,36l3.9,3.3c0.1-0.1,0.2-0.2,0.3-0.3
		l-4.4-3.7l-0.3-1l4.7,3.9l0.2,0.6c0.2-0.2,0.4-0.4,0.6-0.6L33,37.5l0.6,0.5c0.1-0.1,0.2-0.2,0.3-0.3l-1.2-1l-0.4-0.9l1.9,1.6
		c0.1-0.1,0.2-0.2,0.3-0.3L32.1,35l-0.3-0.8l3,2.6c0.1-0.1,0.2-0.2,0.3-0.3l-3.6-3.1l-0.3-0.9l4,3.4l0.2,0.3
		c0.1-0.1,0.2-0.3,0.3-0.4l-6.2-13.4l0,0l-0.1-0.2L29.1,22l0,0l0-0.1l-0.3-0.2l-0.3-0.3l0,0.1l-2.8-2.5l-0.1-0.4l-0.8-1l0.1,0.2
		l-3.5-3.4l-0.3-0.3l0,0l-3-3l-1.2-1L10.6,10l-1,7.3h0l0,0.1L7.3,34.4C7.8,35.3,8.5,36.1,9.2,36.9z M15.1,19l3.1-0.2l0.1,0.5
		l-3.1,0.2L15.1,19z M15.1,19.9l3.2-0.2l0.1,0.7l-3.2,0.2L15.1,19.9z M15.2,20.9l3.3-0.3l0.1,0.5l-3.3,0.3L15.2,20.9z M15.2,22
		l3.4-0.3l0.1,0.5l-3.5,0.3L15.2,22z M15.2,23.1l3.5-0.2l0.1,0.7l-3.6,0.3L15.2,23.1z M23.2,21.6l0.2,0.6l-3.9-3.5l-0.1-0.6
		L23.2,21.6z M19.3,17.8l-0.1-0.5l3.7,3.3l0.1,0.5L19.3,17.8z M23.5,22.5l0.2,0.6l-4-3.6L19.5,19L23.5,22.5z M23.8,23.6l0.1,0.5
		l-4.1-3.6l-0.1-0.4L23.8,23.6z M24.1,24.7l0.2,0.5L20,21.5L19.9,21L24.1,24.7z M24.4,25.9l0.2,0.6l-4.4-3.8l-0.1-0.5L24.4,25.9z
		 M24.8,27.1l0.2,0.8L20.5,24l-0.1-0.7L24.8,27.1z M25.1,28.4l0.3,1l-4.7-4l-0.2-1L25.1,28.4z M25.6,29.9l0.2,0.8L21,26.6l-0.1-0.8
		L25.6,29.9z M26,31.6l0.2,0.9l-5-4.3l-0.1-0.8L26,31.6z M26.3,29.4l4.3,3.7l0.3,0.9l-4.3-3.7L26.3,29.4z M26.1,28.8L25.9,28
		l4.1,3.6l0.3,0.8L26.1,28.8z M25.7,27.4l-0.2-0.6l4,3.5l0.3,0.7L25.7,27.4z M25.3,26.1l-0.2-0.6L29,29l0.3,0.7L25.3,26.1z M24.9,25
		l-0.2-0.5l3.8,3.4l0.2,0.5L24.9,25z M24.6,24l-0.2-0.6l3.7,3.3l0.3,0.7L24.6,24z M24.3,23l-0.2-0.7l3.6,3.2l0.3,0.7L24.3,23z
		 M24,22l-0.2-0.5l3.6,3.2l0.2,0.5L24,22z M23.7,21.1l-0.2-0.5l3.5,3.2l0.2,0.5L23.7,21.1z M23.5,20.3l-0.2-0.5l3.4,3.1l0.2,0.6
		L23.5,20.3z M23.2,19.5l-0.1-0.4l3.3,3l0.2,0.4L23.2,19.5z M23,18.6l-0.1-0.4l3.3,2.9l0.2,0.5L23,18.6z M22.9,20.4L19.2,17
		l-0.1-0.5l3.7,3.3L22.9,20.4z M19,16.3l-0.1-0.5l3.6,3.2l0.1,0.5L19,16.3z M18.9,15.6l-0.1-0.4l3.5,3.1l0.1,0.4L18.9,15.6z
		 M18.7,14.8l-0.1-0.3l3.4,3l0.1,0.4L18.7,14.8z M15.3,24.4l3.7-0.2l0.1,0.6l-3.8,0.3L15.3,24.4z M15.3,25.6l3.8-0.2l0.1,0.8
		l-3.9,0.2L15.3,25.6z M15.4,27.1l4-0.3l0.1,0.9L15.4,28L15.4,27.1z M15.4,28.7l4.2-0.3l0.2,1l-4.3,0.3L15.4,28.7z M15.5,30.3
		l4.3-0.3l0.2,1.1l-4.5,0.3L15.5,30.3z M15.5,32.3l4.6-0.2l0.1,0.9l-4.7,0.3L15.5,32.3z M15.6,34.1l4.8-0.3l0.2,1.2l-4.9,0.4
		L15.6,34.1z M15.7,36.4l5-0.4l0.2,1.5l-5.2,0.4L15.7,36.4z M15.8,40.5l-0.1-1.7l5.3-0.4l0.3,1.7L15.8,40.5z M21.4,28.9l5.1,4.3
		l0.3,1l-5.2-4.4L21.4,28.9z M21.7,30.5l5.3,4.4l0.3,1.2l-5.4-4.6L21.7,30.5z M28.1,39l0.4,1.3l-5.9-4.9l-0.2-1.2L28.1,39z
		 M27.9,38.1l-5.7-4.8L22,32.2l5.5,4.6L27.9,38.1z M31.8,36.4l0.4,1l-4.6-3.9l-0.3-0.9L31.8,36.4z M31.2,34.7l0.3,0.9L27,31.8
		l-0.3-0.9L31.2,34.7z M34.8,35.4L30.9,32l-0.3-0.7l3.9,3.4L34.8,35.4z M34.2,34l-3.8-3.4L30,29.9l3.7,3.3L34.2,34z M33.5,32.6
		l-3.7-3.3l-0.2-0.6l3.7,3.2L33.5,32.6z M33,31.4l-3.6-3.2l-0.3-0.7l3.6,3.1L33,31.4z M32.5,30.2L29,27.1l-0.3-0.7l3.5,3.1
		L32.5,30.2z M32,29.1l-3.4-3l-0.2-0.5l3.4,3L32,29.1z M31.5,28.1l-3.4-3l-0.2-0.5l3.3,3L31.5,28.1z M31.1,27.1l-3.3-3l-0.3-0.6
		l3.2,2.9L31.1,27.1z M30.6,26l-3.2-2.8l-0.2-0.4l3.2,2.8L30.6,26z M30.2,25.2l-3.1-2.8l-0.2-0.5l3.1,2.7L30.2,25.2z M29.8,24.2
		l-3-2.7l-0.2-0.4l3,2.8L29.8,24.2z M29.3,23.1l0.2,0.5l-3-2.8l-0.2-0.4L29.3,23.1z M28.8,22l0.3,0.6l-2.9-2.7l-0.2-0.5L28.8,22z
		 M25.8,20.4l0.1,0.4l-3.2-2.9l-0.1-0.4L25.8,20.4z M25.7,20.1l-3.2-2.9l-0.1-0.4l3.1,2.9L25.7,20.1z M25.4,19.2l-3.1-2.8L22.2,16
		l3,2.8L25.4,19.2z M24.9,17.9l0.1,0.4l-3-2.7l-0.2-0.5L24.9,17.9z M22,17.2l-3.4-3l-0.1-0.5l3.3,3L22,17.2z M21.8,16.5l-3.3-3
		l-0.1-0.3l3.2,3L21.8,16.5z M21.5,15.3l0.1,0.4l-3.2-2.9l-0.1-0.4L21.5,15.3z M21.2,14.5l0.1,0.5l-3.1-2.8l-0.1-0.6L21.2,14.5z
		 M18.1,18.4l-3,0.2l0-0.5l3-0.2L18.1,18.4z M18,17.5L15,17.7l0-0.3l2.9-0.2L18,17.5z M17.9,16.8L15,17l0-0.4l2.8-0.2L17.9,16.8z
		 M17.8,16L15,16.2l0-0.4l2.7-0.2L17.8,16z M17.6,15.3L15,15.5l0-0.4l2.6-0.2L17.6,15.3z M17.6,14.7l-2.6,0.2l0-0.3l2.6-0.2
		L17.6,14.7z M17.5,14l-2.5,0.2l0-0.3l2.5-0.2L17.5,14z M17.4,13.4l-2.5,0.2l0-0.3l2.4-0.2L17.4,13.4z M17.3,12.8l-2.4,0.2l0-0.2
		l2.4-0.2L17.3,12.8z M17.2,12.2l-2.3,0.1l0-0.3l2.3-0.1L17.2,12.2z M17.1,11.7l-2.3,0.1l0-0.2l2.3,0L17.1,11.7z M17,11.1l0,0.1
		l-2.2,0.2l0-0.2l-0.1,0H17z M11.7,11.1h1.5l0,0.2l-1.5,0.1L11.7,11.1z M11.6,11.6l1.6-0.1l0,0.4L11.5,12L11.6,11.6z M11.5,12.2
		l1.6-0.1l0,0.3l-1.7,0.1L11.5,12.2z M11.4,13l1.7-0.1l0,0.2l-1.8,0.1L11.4,13z M11.4,13.5l1.8-0.1v0.2l-1.8,0.1L11.4,13.5z
		 M11.3,14.1l1.9-0.1l0,0.3l-1.9,0.1L11.3,14.1z M11.2,14.8l1.9-0.1l0,0.3l-2,0.1L11.2,14.8z M11.1,15.4l2-0.1l0,0.4l-2.1,0.2
		L11.1,15.4z M11,16.1l2.1-0.2l0,0.4L11,16.5L11,16.1z M10.9,16.9l2.2-0.2v0.4l-2.2,0.2L10.9,16.9z M10.9,17.7l2.3-0.2l0,0.3
		L10.8,18L10.9,17.7z M10.8,18.4l2.4-0.2l0,0.5l-2.4,0.2L10.8,18.4z M10.7,19.3l2.5-0.2l0,0.5l-2.5,0.2L10.7,19.3z M10.5,20.2
		l2.6-0.2l0,0.6l-2.7,0.2L10.5,20.2z M10.4,21.3l2.7-0.2l0,0.6l-2.8,0.2L10.4,21.3z M10.3,22.4l2.8-0.2l0,0.6l-2.9,0.2L10.3,22.4z
		 M10.1,23.4l3-0.2l0,0.8L10,24.3L10.1,23.4z M10,24.8l3.1-0.2l0,0.7l-3.2,0.2L10,24.8z M9.8,26l3.3-0.2l0,0.8l-3.4,0.2L9.8,26z
		 M9.7,27.5l3.4-0.2l0,0.9l-3.5,0.2L9.7,27.5z M9.5,29.1l3.6-0.2l0,1L9.3,30L9.5,29.1z M9.3,30.7l3.8-0.2l0,1.1l-3.9,0.2L9.3,30.7z
		 M9,32.6l4-0.2l0,1.1l-4.2,0.3L9,32.6z M13.1,34.3l0,1.4L8.6,36l0.2-1.5L13.1,34.3z"/>
</g>
<path id="whiteband" class="st2" d="M0.4,7.9c0,0,0,11.1,0,13.9c0,18,21,26.5,21.5,26.5c0,0,21.7-9,21.7-25.9c0-11.7,0-14.3,0-14.7
	C43.6,7.6,23.9-8.8,0.4,7.9z M41.3,22.6c0,15.1-19.4,23.2-19.4,23.2c-0.4,0-19.2-7.6-19.2-23.8c0-2.5,0-12.4,0-12.4
	c21-14.9,38.6-0.2,38.6-0.2S41.3,12.1,41.3,22.6z"/>
<path id="redstrips" class="st3" d="M22,48.7L22,48.7c-0.3,0-22-8.4-22-27V7.6l0.2-0.1C23.6-9.2,43.7,7.2,43.9,7.3L44,7.4v14.9
	C44,39.4,22.3,48.6,22,48.7L22,48.7z M0.9,8.1v13.7c0,17.2,19.5,25.5,21,26.1c1.9-0.8,21.3-9.7,21.3-25.4V7.9
	C41.3,6.4,22.6-7.2,0.9,8.1z M22,46.2L22,46.2c-0.3,0-19.7-7.5-19.7-24.2V9.4l0.2-0.1c21-15,39-0.3,39.2-0.2l0.2,0.2v13.3
	C41.8,37.9,22.3,46.1,22,46.2L22,46.2z M3.1,9.8V22c0,15.3,17.3,22.7,18.8,23.3c1.8-0.8,19-8.7,19-22.7v-13
	C39.1,8.2,22.5-3.8,3.1,9.8z"/>
</svg>
