<?xml version="1.0" encoding="utf-8"?>
<!-- Generator: Adobe Illustrator 22.1.0, SVG Export Plug-In . SVG Version: 6.00 Build 0)  -->
<svg version="1.1" id="Layer_1" xmlns="http://www.w3.org/2000/svg" xmlns:xlink="http://www.w3.org/1999/xlink" x="0px" y="0px"
	 viewBox="0 0 44 48.7" style="enable-background:new 0 0 44 48.7;" xml:space="preserve">
<style type="text/css">
	.st0{fill:url(#SVGID_1_);}
	.st1{fill:#FFFFFF;}
	.st2{fill:#E21D39;}
</style>
<linearGradient id="SVGID_1_" gradientUnits="userSpaceOnUse" x1="43.5894" y1="24.3485" x2="0.4106" y2="24.3485">
	<stop  offset="0" style="stop-color:#4D4D4F"/>
	<stop  offset="0.5361" style="stop-color:#808285"/>
	<stop  offset="1" style="stop-color:#4D4D4F"/>
</linearGradient>
<path class="st0" d="M0.4,7.9c0,0,0,11.1,0,13.9c0,18,21,26.5,21.5,26.5c0,0,21.7-9,21.7-25.9c0-16.9,0-14.7,0-14.7
	S23.8-8.8,0.4,7.9z"/>
<g>
	<polygon class="st1" points="27.6,26.5 26.8,26.8 26.6,25.9 26,26 26.3,26.9 24.2,27.4 24.4,27.7 26.3,27.2 27,29.6 27.3,29.6 
		26.8,27.1 27.8,26.9 	"/>
	<polygon class="st1" points="17.3,26.7 16.9,27 16.8,26.2 16.3,26.3 16.5,27.3 14.7,29 14.9,29.2 16.6,27.7 17,29.2 17.3,29.2 
		17,27.4 17.5,26.9 	"/>
	<polygon class="st1" points="28.8,26.5 29.3,26.7 29.7,31.2 29.2,31.2 29.2,32.8 23.3,30.1 23.3,28.9 22.7,28.3 22.7,23.3 
		23.2,23.3 23.3,21.7 21.4,20.7 21.4,20.6 21.3,20.6 21.2,20.6 21.2,20.7 19.3,21.7 19.4,23.3 19.8,23.3 19.8,28.3 19.2,28.9 
		19.3,30.1 13.3,32.8 13.3,31.2 12.9,31.2 13.2,26.7 13.8,26.5 13.8,24.9 11.8,25.7 11.8,36 21.3,32.5 30.7,36 30.7,25.7 28.8,24.9 
			"/>
	<polygon class="st1" points="31.7,25.5 21.5,13.2 21.5,4.6 21.4,4.6 21.2,12.7 21.2,12.7 21.2,12.9 10.7,25.5 21.2,19.7 	"/>
	<path class="st1" d="M12.6,37.1c3.8,4,8.7,6,8.9,6c0,0,4.8-2,8.6-5.8L21.4,34L12.6,37.1z"/>
	<path class="st1" d="M28.3,7.4L22,4.6c0,0,0.7,3,0,3.7L28.3,7.4z"/>
</g>
<path id="whiteband" class="st1" d="M0.4,7.9c0,0,0,11.1,0,13.9c0,18,21,26.5,21.5,26.5c0,0,21.7-9,21.7-25.9c0-11.7,0-14.3,0-14.7
	C43.6,7.6,23.9-8.8,0.4,7.9z M41.3,22.6c0,15.1-19.4,23.2-19.4,23.2c-0.4,0-19.2-7.6-19.2-23.8c0-2.5,0-12.4,0-12.4
	c21-14.9,38.6-0.2,38.6-0.2S41.3,12.1,41.3,22.6z"/>
<path id="redstrips" class="st2" d="M22,48.7L22,48.7c-0.3,0-22-8.4-22-27V7.6l0.2-0.1C23.6-9.2,43.7,7.2,43.9,7.3L44,7.4v14.9
	C44,39.4,22.3,48.6,22,48.7L22,48.7z M0.9,8.1v13.7c0,17.2,19.5,25.5,21,26.1c1.9-0.8,21.3-9.7,21.3-25.4V7.9
	C41.3,6.4,22.6-7.2,0.9,8.1z M22,46.2L22,46.2c-0.3,0-19.7-7.5-19.7-24.2V9.4l0.2-0.1c21-15,39-0.3,39.2-0.2l0.2,0.2v13.3
	C41.8,37.9,22.3,46.1,22,46.2L22,46.2z M3.1,9.8V22c0,15.3,17.3,22.7,18.8,23.3c1.8-0.8,19-8.7,19-22.7v-13
	C39.1,8.2,22.5-3.8,3.1,9.8z"/>
</svg>
