<svg xmlns="http://www.w3.org/2000/svg" viewBox="0 0 253 253"><defs><style>.cls-1{fill:#c4c4c4;}.cls-2{fill:#fff;}</style></defs><title>email</title><g id="Layer_2" data-name="Layer 2"><g id="Icons"><path class="cls-1" d="M253,126.5A126.5,126.5,0,1,1,126.5,0,126.51,126.51,0,0,1,253,126.5Z"/><path class="cls-2" d="M40.7,69.09a4,4,0,0,0-3.65,4V182a4,4,0,0,0,4,4H210.4a4,4,0,0,0,4-4V73.12a4,4,0,0,0-4-4H41.08A2.41,2.41,0,0,0,40.7,69.09ZM52,77.15h147.4l-73.7,59.34Zm-6.93,4.79,78.11,62.86a4,4,0,0,0,5,0l78.11-62.86v96H45.11Z"/></g></g></svg>