<svg xmlns="http://www.w3.org/2000/svg" viewBox="0 0 187.01 187"><defs><style>.cls-1{fill:#c4c4c4;}.cls-2{fill:#fff;}</style></defs><title>Asset 1</title><g id="Layer_2" data-name="Layer 2"><g id="Icons"><path class="cls-1" d="M187,93.5A93.51,93.51,0,1,1,93.52,0,93.51,93.51,0,0,1,187,93.5Z"/><path class="cls-2" d="M77.92,151.94H101.3V93.5h17.34l2.13-23.38H102.2V60.78c0-4.56,3-5.62,5.16-5.62h13.12v-20l-18.06-.07c-20,0-24.6,14.94-24.6,24.5V70.12H66.23V93.5H77.92Z"/><path class="cls-2" d="M77.92,151.94H101.3V93.5h17.34l2.13-23.38H102.2V60.78c0-4.56,3-5.62,5.16-5.62h13.12v-20l-18.06-.07c-20,0-24.6,14.94-24.6,24.5V70.12H66.23V93.5H77.92Z"/><path class="cls-2" d="M77.92,151.94H101.3V93.5h17.34l2.13-23.38H102.2V60.78c0-4.56,3-5.62,5.16-5.62h13.12v-20l-18.06-.07c-20,0-24.6,14.94-24.6,24.5V70.12H66.23V93.5H77.92Z"/></g></g></svg>