<svg xmlns="http://www.w3.org/2000/svg" viewBox="0 0 191 191"><defs><style>.cls-1{fill:#c4c4c4;}.cls-2{fill:#fff;}</style></defs><title>pinterest</title><g id="Layer_2" data-name="Layer 2"><g id="Icons"><path class="cls-1" d="M191,95.5A95.5,95.5,0,1,1,95.5,0,95.5,95.5,0,0,1,191,95.5Z"/><path class="cls-2" d="M68.25,154.43a1,1,0,0,0,1.68.39c.7-.87,9.73-11.66,12.8-22.43.86-3.06,5-18.85,5-18.85,2.46,4.55,9.66,8.54,17.31,8.54,22.78,0,38.23-20.09,38.23-47,0-20.34-17.81-39.28-44.86-39.28-33.66,0-50.64,23.36-50.64,42.84,0,11.78,4.62,22.28,14.5,26.19a2.45,2.45,0,0,0,3.55-1.71c.33-1.21,1.1-4.24,1.46-5.51.46-1.72.29-2.32-1-3.82-2.86-3.26-4.68-7.48-4.68-13.45C61.56,63,75,47.51,96.44,47.51c19,0,29.49,11.25,29.49,26.28,0,19.77-9.05,36.46-22.46,36.46-7.42,0-13-5.93-11.19-13.21,2.13-8.69,6.26-18.06,6.26-24.33,0-5.61-3.12-10.29-9.56-10.29-7.58,0-13.67,7.58-13.67,17.74A25.67,25.67,0,0,0,77.58,91l-9.12,37.36C65.76,139.47,68.05,153.06,68.25,154.43Z"/><path class="cls-2" d="M68.25,154.43a1,1,0,0,0,1.68.39c.7-.87,9.73-11.66,12.8-22.43.86-3.06,5-18.85,5-18.85,2.46,4.55,9.66,8.54,17.31,8.54,22.78,0,38.23-20.09,38.23-47,0-20.34-17.81-39.28-44.86-39.28-33.66,0-50.64,23.36-50.64,42.84,0,11.78,4.62,22.28,14.5,26.19a2.45,2.45,0,0,0,3.55-1.71c.33-1.21,1.1-4.24,1.46-5.51.46-1.72.29-2.32-1-3.82-2.86-3.26-4.68-7.48-4.68-13.45C61.56,63,75,47.51,96.44,47.51c19,0,29.49,11.25,29.49,26.28,0,19.77-9.05,36.46-22.46,36.46-7.42,0-13-5.93-11.19-13.21,2.13-8.69,6.26-18.06,6.26-24.33,0-5.61-3.12-10.29-9.56-10.29-7.58,0-13.67,7.58-13.67,17.74A25.67,25.67,0,0,0,77.58,91l-9.12,37.36C65.76,139.47,68.05,153.06,68.25,154.43Z"/><path class="cls-2" d="M68.25,154.43a1,1,0,0,0,1.68.39c.7-.87,9.73-11.66,12.8-22.43.86-3.06,5-18.85,5-18.85,2.46,4.55,9.66,8.54,17.31,8.54,22.78,0,38.23-20.09,38.23-47,0-20.34-17.81-39.28-44.86-39.28-33.66,0-50.64,23.36-50.64,42.84,0,11.78,4.62,22.28,14.5,26.19a2.45,2.45,0,0,0,3.55-1.71c.33-1.21,1.1-4.24,1.46-5.51.46-1.72.29-2.32-1-3.82-2.86-3.26-4.68-7.48-4.68-13.45C61.56,63,75,47.51,96.44,47.51c19,0,29.49,11.25,29.49,26.28,0,19.77-9.05,36.46-22.46,36.46-7.42,0-13-5.93-11.19-13.21,2.13-8.69,6.26-18.06,6.26-24.33,0-5.61-3.12-10.29-9.56-10.29-7.58,0-13.67,7.58-13.67,17.74A25.67,25.67,0,0,0,77.58,91l-9.12,37.36C65.76,139.47,68.05,153.06,68.25,154.43Z"/></g></g></svg>