<svg xmlns="http://www.w3.org/2000/svg" viewBox="0 0 210.01 210"><defs><style>.cls-1{fill:#c4c4c4;}.cls-2{fill:#fff;}</style></defs><title>twitter</title><g id="Layer_2" data-name="Layer 2"><g id="Icons"><path class="cls-1" d="M210,105A105,105,0,1,1,105,0,105,105,0,0,1,210,105Z"/><path class="cls-2" d="M167,54.43a54.19,54.19,0,0,1-17.1,6.44,27.1,27.1,0,0,0-19.66-8.37A26.54,26.54,0,0,0,104,85.05a76.86,76.86,0,0,1-55.5-27.7,26,26,0,0,0-3.65,13.33,26.4,26.4,0,0,0,12,22.06,27.22,27.22,0,0,1-12.19-3.31v.33a26.63,26.63,0,0,0,21.6,26,27.21,27.21,0,0,1-7.1.93,28.29,28.29,0,0,1-5.07-.47,26.94,26.94,0,0,0,25.16,18.41,55.13,55.13,0,0,1-39.87,11A77.14,77.14,0,0,0,80.66,157.5c49.53,0,76.61-40.39,76.61-75.42,0-1.15,0-2.29-.06-3.43a54.22,54.22,0,0,0,13.43-13.72,54.42,54.42,0,0,1-15.47,4.17A26.64,26.64,0,0,0,167,54.43Z"/><path class="cls-2" d="M167,54.43a54.19,54.19,0,0,1-17.1,6.44,27.1,27.1,0,0,0-19.66-8.37A26.54,26.54,0,0,0,104,85.05a76.86,76.86,0,0,1-55.5-27.7,26,26,0,0,0-3.65,13.33,26.4,26.4,0,0,0,12,22.06,27.22,27.22,0,0,1-12.19-3.31v.33a26.63,26.63,0,0,0,21.6,26,27.21,27.21,0,0,1-7.1.93,28.29,28.29,0,0,1-5.07-.47,26.94,26.94,0,0,0,25.16,18.41,55.13,55.13,0,0,1-39.87,11A77.14,77.14,0,0,0,80.66,157.5c49.53,0,76.61-40.39,76.61-75.42,0-1.15,0-2.29-.06-3.43a54.22,54.22,0,0,0,13.43-13.72,54.42,54.42,0,0,1-15.47,4.17A26.64,26.64,0,0,0,167,54.43Z"/><path class="cls-2" d="M167,54.43a54.19,54.19,0,0,1-17.1,6.44,27.1,27.1,0,0,0-19.66-8.37A26.54,26.54,0,0,0,104,85.05a76.86,76.86,0,0,1-55.5-27.7,26,26,0,0,0-3.65,13.33,26.4,26.4,0,0,0,12,22.06,27.22,27.22,0,0,1-12.19-3.31v.33a26.63,26.63,0,0,0,21.6,26,27.21,27.21,0,0,1-7.1.93,28.29,28.29,0,0,1-5.07-.47,26.94,26.94,0,0,0,25.16,18.41,55.13,55.13,0,0,1-39.87,11A77.14,77.14,0,0,0,80.66,157.5c49.53,0,76.61-40.39,76.61-75.42,0-1.15,0-2.29-.06-3.43a54.22,54.22,0,0,0,13.43-13.72,54.42,54.42,0,0,1-15.47,4.17A26.64,26.64,0,0,0,167,54.43Z"/></g></g></svg>