<svg xmlns="http://www.w3.org/2000/svg" viewBox="0 0 318 318"><defs><style>.cls-1{fill:#c4c4c4;}.cls-2{fill:#fff;}</style></defs><title>Youtube</title><g id="Layer_2" data-name="Layer 2"><g id="Icons"><path class="cls-1" d="M318,159A159,159,0,1,1,159,0,159,159,0,0,1,318,159Z"/><path class="cls-2" d="M212.16,193.38a3.93,3.93,0,0,0-3.43,1.42c-.71.91-1,2.46-1,4.61v5.2h8.89v-5.2a7.74,7.74,0,0,0-1.06-4.61A3.85,3.85,0,0,0,212.16,193.38Z"/><path class="cls-2" d="M177.49,193.21a4.82,4.82,0,0,0-2.13.5,7.18,7.18,0,0,0-2.07,1.57v32a8.69,8.69,0,0,0,2.38,1.83,5.83,5.83,0,0,0,2.43.55,3.25,3.25,0,0,0,2.72-1.1,5.75,5.75,0,0,0,.86-3.54V198.5a6.4,6.4,0,0,0-1-3.95A3.87,3.87,0,0,0,177.49,193.21Z"/><path class="cls-2" d="M222.07,152.38H95.93c-20.05,0-36.31,18.55-36.31,39v29.83c0,20.5,16.26,37.13,36.31,37.13H222.07c20.05,0,36.31-16.63,36.31-37.13V191.42C258.38,170.93,242.12,152.38,222.07,152.38Zm-99.64,25.14H110.71v59.57H99.38V177.52H87.67V167.39h34.76Zm33.13,59.57H145.5v-5.64a21.11,21.11,0,0,1-5.79,4.75,11.92,11.92,0,0,1-5.85,1.65,6.16,6.16,0,0,1-5.24-2.3c-1.17-1.54-1.77-3.81-1.77-6.89v-43H136.9v39.46a4.48,4.48,0,0,0,.62,2.63,2.46,2.46,0,0,0,2.07.82,5.71,5.71,0,0,0,2.81-1.08,13.82,13.82,0,0,0,3.1-2.76V185.66h10.06Zm36.49-10.62q0,5.46-2.37,8.38a8.28,8.28,0,0,1-6.83,2.9,11.73,11.73,0,0,1-5.27-1.12,13,13,0,0,1-4.29-3.48v3.94H163.13v-69.7h10.16v22.45a15.86,15.86,0,0,1,4.3-3.57,9.66,9.66,0,0,1,4.65-1.23,8.58,8.58,0,0,1,7.28,3.28q2.53,3.28,2.53,9.61Zm34.86-13.85H207.68v9.69c0,2.7.32,4.58,1,5.63a3.71,3.71,0,0,0,3.42,1.56,4.08,4.08,0,0,0,3.49-1.33c.65-.9,1-2.84,1-5.86V220h10.34v2.63c0,5.28-1.25,9.24-3.79,11.92s-6.27,4-11.28,4c-4.51,0-8.07-1.41-10.64-4.24s-3.89-6.7-3.89-11.66V199.5a14.66,14.66,0,0,1,4.29-10.91,14.94,14.94,0,0,1,11-4.2q6.9,0,10.61,3.9t3.7,11.21Z"/><polygon class="cls-2" points="97.28 59.63 112.44 106 112.44 136.43 125.19 136.43 125.19 104.56 140.03 59.63 127.07 59.63 119.19 90.33 118.38 90.33 110.1 59.63 97.28 59.63"/><path class="cls-2" d="M145.5,82.24A13.14,13.14,0,0,0,141,92.73v29.36c0,4.82,1.49,8.63,4.44,11.49s7,4.28,11.9,4.28q7.71,0,12.13-4.14c2.91-2.77,4.38-6.56,4.38-11.4V93.05a13.8,13.8,0,0,0-4.47-10.6,16.49,16.49,0,0,0-11.53-4.11C152.66,78.34,148.56,79.65,145.5,82.24Zm16.77,10.05v30.87a4.8,4.8,0,0,1-1.35,3.59,5.14,5.14,0,0,1-3.67,1.29,4.44,4.44,0,0,1-3.45-1.28,5,5,0,0,1-1.2-3.6V92.29a3.91,3.91,0,0,1,1.28-3,4.94,4.94,0,0,1,3.37-1.13,5.51,5.51,0,0,1,3.63,1.13A3.72,3.72,0,0,1,162.27,92.29Z"/><path class="cls-2" d="M215.29,136.43V79.78H204v43a15.61,15.61,0,0,1-3.49,3,6.56,6.56,0,0,1-3.17,1.19,2.72,2.72,0,0,1-2.3-.91,4.78,4.78,0,0,1-.72-2.9V79.78H183v47.35c0,3.38.67,5.9,2,7.57a7.06,7.06,0,0,0,5.91,2.55,13.87,13.87,0,0,0,6.56-1.81,24.14,24.14,0,0,0,6.53-5.29v6.28Z"/><path class="cls-2" d="M212.16,193.38a3.93,3.93,0,0,0-3.43,1.42c-.71.91-1,2.46-1,4.61v5.2h8.89v-5.2a7.74,7.74,0,0,0-1.06-4.61A3.85,3.85,0,0,0,212.16,193.38Z"/><path class="cls-2" d="M177.49,193.21a4.82,4.82,0,0,0-2.13.5,7.18,7.18,0,0,0-2.07,1.57v32a8.69,8.69,0,0,0,2.38,1.83,5.83,5.83,0,0,0,2.43.55,3.25,3.25,0,0,0,2.72-1.1,5.75,5.75,0,0,0,.86-3.54V198.5a6.4,6.4,0,0,0-1-3.95A3.87,3.87,0,0,0,177.49,193.21Z"/><path class="cls-2" d="M222.07,152.38H95.93c-20.05,0-36.31,18.55-36.31,39v29.83c0,20.5,16.26,37.13,36.31,37.13H222.07c20.05,0,36.31-16.63,36.31-37.13V191.42C258.38,170.93,242.12,152.38,222.07,152.38Zm-99.64,25.14H110.71v59.57H99.38V177.52H87.67V167.39h34.76Zm33.13,59.57H145.5v-5.64a21.11,21.11,0,0,1-5.79,4.75,11.92,11.92,0,0,1-5.85,1.65,6.16,6.16,0,0,1-5.24-2.3c-1.17-1.54-1.77-3.81-1.77-6.89v-43H136.9v39.46a4.48,4.48,0,0,0,.62,2.63,2.46,2.46,0,0,0,2.07.82,5.71,5.71,0,0,0,2.81-1.08,13.82,13.82,0,0,0,3.1-2.76V185.66h10.06Zm36.49-10.62q0,5.46-2.37,8.38a8.28,8.28,0,0,1-6.83,2.9,11.73,11.73,0,0,1-5.27-1.12,13,13,0,0,1-4.29-3.48v3.94H163.13v-69.7h10.16v22.45a15.86,15.86,0,0,1,4.3-3.57,9.66,9.66,0,0,1,4.65-1.23,8.58,8.58,0,0,1,7.28,3.28q2.53,3.28,2.53,9.61Zm34.86-13.85H207.68v9.69c0,2.7.32,4.58,1,5.63a3.71,3.71,0,0,0,3.42,1.56,4.08,4.08,0,0,0,3.49-1.33c.65-.9,1-2.84,1-5.86V220h10.34v2.63c0,5.28-1.25,9.24-3.79,11.92s-6.27,4-11.28,4c-4.51,0-8.07-1.41-10.64-4.24s-3.89-6.7-3.89-11.66V199.5a14.66,14.66,0,0,1,4.29-10.91,14.94,14.94,0,0,1,11-4.2q6.9,0,10.61,3.9t3.7,11.21Z"/><polygon class="cls-2" points="97.28 59.63 112.44 106 112.44 136.43 125.19 136.43 125.19 104.56 140.03 59.63 127.07 59.63 119.19 90.33 118.38 90.33 110.1 59.63 97.28 59.63"/><path class="cls-2" d="M145.5,82.24A13.14,13.14,0,0,0,141,92.73v29.36c0,4.82,1.49,8.63,4.44,11.49s7,4.28,11.9,4.28q7.71,0,12.13-4.14c2.91-2.77,4.38-6.56,4.38-11.4V93.05a13.8,13.8,0,0,0-4.47-10.6,16.49,16.49,0,0,0-11.53-4.11C152.66,78.34,148.56,79.65,145.5,82.24Zm16.77,10.05v30.87a4.8,4.8,0,0,1-1.35,3.59,5.14,5.14,0,0,1-3.67,1.29,4.44,4.44,0,0,1-3.45-1.28,5,5,0,0,1-1.2-3.6V92.29a3.91,3.91,0,0,1,1.28-3,4.94,4.94,0,0,1,3.37-1.13,5.51,5.51,0,0,1,3.63,1.13A3.72,3.72,0,0,1,162.27,92.29Z"/><path class="cls-2" d="M215.29,136.43V79.78H204v43a15.61,15.61,0,0,1-3.49,3,6.56,6.56,0,0,1-3.17,1.19,2.72,2.72,0,0,1-2.3-.91,4.78,4.78,0,0,1-.72-2.9V79.78H183v47.35c0,3.38.67,5.9,2,7.57a7.06,7.06,0,0,0,5.91,2.55,13.87,13.87,0,0,0,6.56-1.81,24.14,24.14,0,0,0,6.53-5.29v6.28Z"/><path class="cls-2" d="M212.16,193.38a3.93,3.93,0,0,0-3.43,1.42c-.71.91-1,2.46-1,4.61v5.2h8.89v-5.2a7.74,7.74,0,0,0-1.06-4.61A3.85,3.85,0,0,0,212.16,193.38Z"/><path class="cls-2" d="M177.49,193.21a4.82,4.82,0,0,0-2.13.5,7.18,7.18,0,0,0-2.07,1.57v32a8.69,8.69,0,0,0,2.38,1.83,5.83,5.83,0,0,0,2.43.55,3.25,3.25,0,0,0,2.72-1.1,5.75,5.75,0,0,0,.86-3.54V198.5a6.4,6.4,0,0,0-1-3.95A3.87,3.87,0,0,0,177.49,193.21Z"/><path class="cls-2" d="M222.07,152.38H95.93c-20.05,0-36.31,18.55-36.31,39v29.83c0,20.5,16.26,37.13,36.31,37.13H222.07c20.05,0,36.31-16.63,36.31-37.13V191.42C258.38,170.93,242.12,152.38,222.07,152.38Zm-99.64,25.14H110.71v59.57H99.38V177.52H87.67V167.39h34.76Zm33.13,59.57H145.5v-5.64a21.11,21.11,0,0,1-5.79,4.75,11.92,11.92,0,0,1-5.85,1.65,6.16,6.16,0,0,1-5.24-2.3c-1.17-1.54-1.77-3.81-1.77-6.89v-43H136.9v39.46a4.48,4.48,0,0,0,.62,2.63,2.46,2.46,0,0,0,2.07.82,5.71,5.71,0,0,0,2.81-1.08,13.82,13.82,0,0,0,3.1-2.76V185.66h10.06Zm36.49-10.62q0,5.46-2.37,8.38a8.28,8.28,0,0,1-6.83,2.9,11.73,11.73,0,0,1-5.27-1.12,13,13,0,0,1-4.29-3.48v3.94H163.13v-69.7h10.16v22.45a15.86,15.86,0,0,1,4.3-3.57,9.66,9.66,0,0,1,4.65-1.23,8.58,8.58,0,0,1,7.28,3.28q2.53,3.28,2.53,9.61Zm34.86-13.85H207.68v9.69c0,2.7.32,4.58,1,5.63a3.71,3.71,0,0,0,3.42,1.56,4.08,4.08,0,0,0,3.49-1.33c.65-.9,1-2.84,1-5.86V220h10.34v2.63c0,5.28-1.25,9.24-3.79,11.92s-6.27,4-11.28,4c-4.51,0-8.07-1.41-10.64-4.24s-3.89-6.7-3.89-11.66V199.5a14.66,14.66,0,0,1,4.29-10.91,14.94,14.94,0,0,1,11-4.2q6.9,0,10.61,3.9t3.7,11.21Z"/><polygon class="cls-2" points="97.28 59.63 112.44 106 112.44 136.43 125.19 136.43 125.19 104.56 140.03 59.63 127.07 59.63 119.19 90.33 118.38 90.33 110.1 59.63 97.28 59.63"/><path class="cls-2" d="M145.5,82.24A13.14,13.14,0,0,0,141,92.73v29.36c0,4.82,1.49,8.63,4.44,11.49s7,4.28,11.9,4.28q7.71,0,12.13-4.14c2.91-2.77,4.38-6.56,4.38-11.4V93.05a13.8,13.8,0,0,0-4.47-10.6,16.49,16.49,0,0,0-11.53-4.11C152.66,78.34,148.56,79.65,145.5,82.24Zm16.77,10.05v30.87a4.8,4.8,0,0,1-1.35,3.59,5.14,5.14,0,0,1-3.67,1.29,4.44,4.44,0,0,1-3.45-1.28,5,5,0,0,1-1.2-3.6V92.29a3.91,3.91,0,0,1,1.28-3,4.94,4.94,0,0,1,3.37-1.13,5.51,5.51,0,0,1,3.63,1.13A3.72,3.72,0,0,1,162.27,92.29Z"/><path class="cls-2" d="M215.29,136.43V79.78H204v43a15.61,15.61,0,0,1-3.49,3,6.56,6.56,0,0,1-3.17,1.19,2.72,2.72,0,0,1-2.3-.91,4.78,4.78,0,0,1-.72-2.9V79.78H183v47.35c0,3.38.67,5.9,2,7.57a7.06,7.06,0,0,0,5.91,2.55,13.87,13.87,0,0,0,6.56-1.81,24.14,24.14,0,0,0,6.53-5.29v6.28Z"/></g></g></svg>